<?xml version="1.0" encoding="utf-8" standalone="yes"?>
<!DOCTYPE svg PUBLIC "-//W3C//DTD SVG 1.1//EN" "http://www.w3.org/Graphics/SVG/1.1/DTD/svg11.dtd">
<svg width="864" height="619" viewBox="0 0 864 619" style="fill:none;stroke:none;fill-rule:evenodd;clip-rule:evenodd;stroke-linecap:round;stroke-linejoin:round;stroke-miterlimit:1.5;" version="1.1" xmlns="http://www.w3.org/2000/svg" xmlns:xlink="http://www.w3.org/1999/xlink"><style id="fontImports">@import url("https://fonts.googleapis.com/css2?family=Roboto:wght@400;700&amp;display=block");</style><rect id="" x="0" y="0" width="864" height="619" style="fill: #ffffff;"></rect><g id="items" style="isolation: isolate"><g id="blend" style="mix-blend-mode:multiply"><g id="g-root-ro_v4vpz815efib-fill" data-item-order="-21600" data-item-id="ro_v4vpz815efib" data-item-class="Shape Stroke Fill" data-item-index="none" data-renderer-id="0" transform="translate(374, 150)"><g id="ro_v4vpz815efib-fill" stroke="none" fill="#f0f0f0"><g><path d="M 34 10L 130 10C 130 10 154 10 154 34L 154 136C 154 136 154 160 130 160L 34 160C 34 160 10 160 10 136L 10 34C 10 34 10 10 34 10"></path></g></g></g><g id="g-root-ro_1448fno1fs07h-fill" data-item-order="-13608" data-item-id="ro_1448fno1fs07h" data-item-class="Shape Stroke Fill" data-item-index="none" data-renderer-id="0" transform="translate(74, 321)"><g id="ro_1448fno1fs07h-fill" stroke="none" fill="#e6f9ff"><g><path d="M 22 10L 250 10C 250 10 262 10 262 22L 262 52C 262 52 262 64 250 64L 22 64C 22 64 10 64 10 52L 10 22C 10 22 10 10 22 10"></path></g></g></g><g id="g-root-ro_mcyc041fdz4a-fill" data-item-order="-13608" data-item-id="ro_mcyc041fdz4a" data-item-class="Shape Stroke Fill" data-item-index="none" data-renderer-id="0" transform="translate(566, 51)"><g id="ro_mcyc041fdz4a-fill" stroke="none" fill="#e9fbf3"><g><path d="M 22 10L 250 10C 250 10 262 10 262 22L 262 52C 262 52 262 64 250 64L 22 64C 22 64 10 64 10 52L 10 22C 10 22 10 10 22 10"></path></g></g></g><g id="g-root-ro_1qbyfd01fjksp-fill" data-item-order="-9720" data-item-id="ro_1qbyfd01fjksp" data-item-class="Shape Stroke Fill" data-item-index="none" data-renderer-id="0" transform="translate(146, 3)"><g id="ro_1qbyfd01fjksp-fill" stroke="none" fill="#e6efff"><g><path d="M 22 10L 178 10C 178 10 190 10 190 22L 190 52C 190 52 190 64 178 64L 22 64C 22 64 10 64 10 52L 10 22C 10 22 10 10 22 10"></path></g></g></g><g id="g-root-ro_18jfgp01f8buv-fill" data-item-order="-9072" data-item-id="ro_18jfgp01f8buv" data-item-class="Shape Stroke Fill" data-item-index="none" data-renderer-id="0" transform="translate(566, 237)"><g id="ro_18jfgp01f8buv-fill" stroke="none" fill="#f7e6fe"><g><path d="M 22 10L 166 10C 166 10 178 10 178 22L 178 52C 178 52 178 64 166 64L 22 64C 22 64 10 64 10 52L 10 22C 10 22 10 10 22 10"></path></g></g></g><g id="g-root-ro_metr9g1fp822-fill" data-item-order="-7128" data-item-id="ro_metr9g1fp822" data-item-class="Shape Stroke Fill" data-item-index="none" data-renderer-id="0" transform="translate(380, 471)"><g id="ro_metr9g1fp822-fill" stroke="none" fill="#fef2e6"><g><path d="M 22 10L 130 10C 130 10 142 10 142 22L 142 52C 142 52 142 64 130 64L 22 64C 22 64 10 64 10 52L 10 22C 10 22 10 10 22 10"></path></g></g></g><g id="g-root-cu_1useekk1fs002-fill" data-item-order="0" data-item-id="cu_1useekk1fs002" data-item-class="Curve Stroke ColorFillGray ColorStrokeGray" data-item-index="none" data-renderer-id="0" transform="translate(284, 57)"></g><g id="g-root-cu_1useekk1fs004-fill" data-item-order="0" data-item-id="cu_1useekk1fs004" data-item-class="Curve Stroke ColorFillGray ColorStrokeGray" data-item-index="none" data-renderer-id="0" transform="translate(284, 57)"></g><g id="g-root-cu_1lwrebo1fs0su-fill" data-item-order="0" data-item-id="cu_1lwrebo1fs0su" data-item-class="Curve Stroke ColorFillGray ColorStrokeGray" data-item-index="none" data-renderer-id="0" transform="translate(284, 57)"></g><g id="g-root-cu_1qckwg41fs0sg-fill" data-item-order="0" data-item-id="cu_1qckwg41fs0sg" data-item-class="Curve Stroke ColorFillGray ColorStrokeGray" data-item-index="none" data-renderer-id="0" transform="translate(284, 57)"></g><g id="g-root-cu_6hdms1fs2ko-fill" data-item-order="0" data-item-id="cu_6hdms1fs2ko" data-item-class="Curve Stroke ColorFillGray ColorStrokeGray" data-item-index="none" data-renderer-id="0" transform="translate(284, 57)"></g><g id="g-root-tx_highspee_v7yybo1f8dfs-fill" data-item-order="0" data-item-id="tx_highspee_v7yybo1f8dfs" data-item-class="Label Stroke" data-item-index="none" data-renderer-id="0" transform="translate(86, 69)"><g id="tx_highspee_v7yybo1f8dfs-fill" stroke="none" fill="#484848"><g><text style="font: 20px &quot;Roboto&quot;, sans-serif; white-space: pre;"><tspan x="15.37" y="34" dominant-baseline="ideographic">High-Speed Transfer</tspan></text></g></g></g><g id="g-root-colu_v8lc901fdybl-fill" data-item-order="0" data-item-id="colu_v8lc901fdybl" data-item-class="Icon Stroke" data-item-index="none" data-renderer-id="0" transform="translate(578, 63)"></g><g id="g-root-tx_operatio_1qa2wxw1fe0p4-fill" data-item-order="0" data-item-id="tx_operatio_1qa2wxw1fe0p4" data-item-class="Label Stroke" data-item-index="none" data-renderer-id="0" transform="translate(614, 66)"><g id="tx_operatio_1qa2wxw1fe0p4-fill" stroke="none" fill="#3bc482"><g><text style="font: 20px &quot;Roboto&quot;, sans-serif; white-space: pre;"><tspan x="16.08" y="34" dominant-baseline="ideographic">Operational Aspects</tspan></text></g></g></g><g id="g-root-cu_hxre4k1fs078-fill" data-item-order="0" data-item-id="cu_hxre4k1fs078" data-item-class="Curve Stroke ColorFillGray ColorStrokeGray" data-item-index="none" data-renderer-id="0" transform="translate(518, 78)"></g><g id="g-root-tx_automate_qs5g781f8e81-fill" data-item-order="0" data-item-id="tx_automate_qs5g781f8e81" data-item-class="Label Stroke" data-item-index="none" data-renderer-id="0" transform="translate(26, 105)"><g id="tx_automate_qs5g781f8e81-fill" stroke="none" fill="#484848"><g><text style="font: 20px &quot;Roboto&quot;, sans-serif; white-space: pre;"><tspan x="13.1" y="34" dominant-baseline="ideographic">Automated Synchronization</tspan></text></g></g></g><g id="g-root-cu_1463ux01fs00f-fill" data-item-order="0" data-item-id="cu_1463ux01fs00f" data-item-class="Curve Stroke ColorFillGray ColorStrokeGray" data-item-index="none" data-renderer-id="0" transform="translate(590, 105)"></g><g id="g-root-cu_zqacsk1fs0sq-fill" data-item-order="0" data-item-id="cu_zqacsk1fs0sq" data-item-class="Curve Stroke ColorFillGray ColorStrokeGray" data-item-index="none" data-renderer-id="0" transform="translate(590, 105)"></g><g id="g-root-cu_vaguo41fs1l0-fill" data-item-order="0" data-item-id="cu_vaguo41fs1l0" data-item-class="Curve Stroke ColorFillGray ColorStrokeGray" data-item-index="none" data-renderer-id="0" transform="translate(590, 105)"></g><g id="g-root-tx_schedule_1lw4x8k1f8cg8-fill" data-item-order="0" data-item-id="tx_schedule_1lw4x8k1f8cg8" data-item-class="Label Stroke" data-item-index="none" data-renderer-id="0" transform="translate(614, 117)"><g id="tx_schedule_1lw4x8k1f8cg8-fill" stroke="none" fill="#484848"><g><text style="font: 20px &quot;Roboto&quot;, sans-serif; white-space: pre;"><tspan x="14.92" y="34" dominant-baseline="ideographic">Scheduled Transfers</tspan></text></g></g></g><g id="g-root-tx_datatran_hx4x1g1f8buy-fill" data-item-order="0" data-item-id="tx_datatran_hx4x1g1f8buy" data-item-class="Label Stroke" data-item-index="none" data-renderer-id="0" transform="translate(26, 141)"><g id="tx_datatran_hx4x1g1f8buy-fill" stroke="none" fill="#484848"><g><text style="font: 20px &quot;Roboto&quot;, sans-serif; white-space: pre;"><tspan x="14.5" y="34" dominant-baseline="ideographic">Data Transfer Management</tspan></text></g></g></g><g id="g-root-cu_dhxw041fs0zp-fill" data-item-order="0" data-item-id="cu_dhxw041fs0zp" data-item-class="Curve Stroke ColorFillGray ColorStrokeGray" data-item-index="none" data-renderer-id="0" transform="translate(284, 57)"></g><g id="g-root-tx_monitori_1hgbf441f8d8h-fill" data-item-order="0" data-item-id="tx_monitori_1hgbf441f8d8h" data-item-class="Label Stroke" data-item-index="none" data-renderer-id="0" transform="translate(614, 153)"><g id="tx_monitori_1hgbf441f8d8h-fill" stroke="none" fill="#484848"><g><text style="font: 20px &quot;Roboto&quot;, sans-serif; white-space: pre;"><tspan x="12.43" y="34" dominant-baseline="ideographic">Monitoring and Logging</tspan></text></g></g></g><g id="g-root-tx_integrat_dhbex01f8cn7-fill" data-item-order="0" data-item-id="tx_integrat_dhbex01f8cn7" data-item-class="Label Stroke" data-item-index="none" data-renderer-id="0" transform="translate(2, 177)"><g id="tx_integrat_dhbex01f8cn7-fill" stroke="none" fill="#484848"><g><text style="font: 20px &quot;Roboto&quot;, sans-serif; white-space: pre;"><tspan x="15.25" y="34" dominant-baseline="ideographic">Integration with AWS Services</tspan></text></g></g></g><g id="g-root-hori_1cw5qh015ed56-fill" data-item-order="0" data-item-id="hori_1cw5qh015ed56" data-item-class="Icon Stroke" data-item-index="none" data-renderer-id="0" transform="translate(422, 174)"></g><g id="g-root-tx_bandwidt_1hgbf441f8d8i-fill" data-item-order="0" data-item-id="tx_bandwidt_1hgbf441f8d8i" data-item-class="Label Stroke" data-item-index="none" data-renderer-id="0" transform="translate(614, 189)"><g id="tx_bandwidt_1hgbf441f8d8i-fill" stroke="none" fill="#484848"><g><text style="font: 20px &quot;Roboto&quot;, sans-serif; white-space: pre;"><tspan x="13.38" y="34" dominant-baseline="ideographic">Bandwidth Throttling</tspan></text></g></g></g><g id="g-root-tx_dataencr_4loeo41f8dfw-fill" data-item-order="0" data-item-id="tx_dataencr_4loeo41f8dfw" data-item-class="Label Stroke" data-item-index="none" data-renderer-id="0" transform="translate(2, 213)"><g id="tx_dataencr_4loeo41f8dfw-fill" stroke="none" fill="#484848"><g><text style="font: 20px &quot;Roboto&quot;, sans-serif; white-space: pre;"><tspan x="17.42" y="34" dominant-baseline="ideographic">Data Encryption and Integrity </tspan><tspan x="112.75" y="58" dominant-baseline="ideographic">Checks</tspan></text></g></g></g><g id="g-root-tx_awsdatas_4hc85g15edc9-fill" data-item-order="0" data-item-id="tx_awsdatas_4hc85g15edc9" data-item-class="Label Stroke" data-item-index="none" data-renderer-id="0" transform="translate(398, 228)"><g id="tx_awsdatas_4hc85g15edc9-fill" stroke="none" fill="#484848"><g><text style="font: 20px &quot;Roboto&quot;, sans-serif; white-space: pre;"><tspan x="37.01" y="34" dominant-baseline="ideographic">AWS </tspan><tspan x="15.88" y="58" dominant-baseline="ideographic">DataSync</tspan></text></g></g></g><g id="g-root-tx_nominimu_v9udl01f8cgc-fill" data-item-order="0" data-item-id="tx_nominimu_v9udl01f8cgc" data-item-class="Label Stroke" data-item-index="none" data-renderer-id="0" transform="translate(428, 573)"><g id="tx_nominimu_v9udl01f8cgc-fill" stroke="none" fill="#484848"><g><text style="font: 20px &quot;Roboto&quot;, sans-serif; white-space: pre;"><tspan x="12.89" y="34" dominant-baseline="ideographic">No Minimum Fees</tspan></text></g></g></g><g id="g-root-cu_dhxw041fs0zm-fill" data-item-order="0" data-item-id="cu_dhxw041fs0zm" data-item-class="Curve Stroke ColorFillGray ColorStrokeGray" data-item-index="none" data-renderer-id="0" transform="translate(518, 250)"></g><g id="g-root-appl_1cymhqc1f8e8e-fill" data-item-order="0" data-item-id="appl_1cymhqc1f8e8e" data-item-class="Icon Stroke" data-item-index="none" data-renderer-id="0" transform="translate(578, 249)"></g><g id="g-root-tx_usecases_1qa303o1f8cnh-fill" data-item-order="0" data-item-id="tx_usecases_1qa303o1f8cnh" data-item-class="Label Stroke" data-item-index="none" data-renderer-id="0" transform="translate(614, 252)"><g id="tx_usecases_1qa303o1f8cnh-fill" stroke="none" fill="#b65edf"><g><text style="font: 20px &quot;Roboto&quot;, sans-serif; white-space: pre;"><tspan x="17.02" y="34" dominant-baseline="ideographic">Use Cases</tspan></text></g></g></g><g id="g-root-tx_agentdep_5uwjo1f8e85-fill" data-item-order="0" data-item-id="tx_agentdep_5uwjo1f8e85" data-item-class="Label Stroke" data-item-index="none" data-renderer-id="0" transform="translate(110, 273)"><g id="tx_agentdep_5uwjo1f8e85-fill" stroke="none" fill="#484848"><g><text style="font: 20px &quot;Roboto&quot;, sans-serif; white-space: pre;"><tspan x="12.2" y="34" dominant-baseline="ideographic">Agent Deployment</tspan></text></g></g></g><g id="g-root-cu_hxre4k1fs07b-fill" data-item-order="0" data-item-id="cu_hxre4k1fs07b" data-item-class="Curve Stroke ColorFillGray ColorStrokeGray" data-item-index="none" data-renderer-id="0" transform="translate(446, 300)"></g><g id="g-root-cu_hzmtdw1fs00b-fill" data-item-order="0" data-item-id="cu_hzmtdw1fs00b" data-item-class="Curve Stroke ColorFillGray ColorStrokeGray" data-item-index="none" data-renderer-id="0" transform="translate(590, 291)"></g><g id="g-root-cu_djtb9g1fs0sm-fill" data-item-order="0" data-item-id="cu_djtb9g1fs0sm" data-item-class="Curve Stroke ColorFillGray ColorStrokeGray" data-item-index="none" data-renderer-id="0" transform="translate(590, 291)"></g><g id="g-root-cu_djtb9g1fs0so-fill" data-item-order="0" data-item-id="cu_djtb9g1fs0so" data-item-class="Curve Stroke ColorFillGray ColorStrokeGray" data-item-index="none" data-renderer-id="0" transform="translate(590, 291)"></g><g id="g-root-tx_datamigr_hydv7o1f8e19-fill" data-item-order="0" data-item-id="tx_datamigr_hydv7o1f8e19" data-item-class="Label Stroke" data-item-index="none" data-renderer-id="0" transform="translate(614, 303)"><g id="tx_datamigr_hydv7o1f8e19-fill" stroke="none" fill="#484848"><g><text style="font: 20px &quot;Roboto&quot;, sans-serif; white-space: pre;"><tspan x="16.51" y="34" dominant-baseline="ideographic">Data Migration</tspan></text></g></g></g><g id="g-root-cu_qsrxac1fs1se-fill" data-item-order="0" data-item-id="cu_qsrxac1fs1se" data-item-class="Curve Stroke ColorFillGray ColorStrokeGray" data-item-index="none" data-renderer-id="0" transform="translate(326, 30)"></g><g id="g-root-tx_datatran_1qaph6s1fs0zn-fill" data-item-order="0" data-item-id="tx_datatran_1qaph6s1fs0zn" data-item-class="Label Stroke" data-item-index="none" data-renderer-id="0" transform="translate(86, 336)"><g id="tx_datatran_1qaph6s1fs0zn-fill" stroke="none" fill="#17b0e3"><g><text style="font: 20px &quot;Roboto&quot;, sans-serif; white-space: pre;"><tspan x="16.97" y="34" dominant-baseline="ideographic">Data Transfer Types</tspan></text></g></g></g><g id="g-root-back_1cz8ytg1fs2kk-fill" data-item-order="0" data-item-id="back_1cz8ytg1fs2kk" data-item-class="Icon Stroke" data-item-index="none" data-renderer-id="0" transform="translate(284, 333)"></g><g id="g-root-tx_analytic_dj6u6c1f8bnq-fill" data-item-order="0" data-item-id="tx_analytic_dj6u6c1f8bnq" data-item-class="Label Stroke" data-item-index="none" data-renderer-id="0" transform="translate(614, 339)"><g id="tx_analytic_dj6u6c1f8bnq-fill" stroke="none" fill="#484848"><g><text style="font: 20px &quot;Roboto&quot;, sans-serif; white-space: pre;"><tspan x="12.03" y="34" dominant-baseline="ideographic">Analytics and Processing</tspan></text></g></g></g><g id="g-root-tx_onpremis_5uwjo1f8e86-fill" data-item-order="0" data-item-id="tx_onpremis_5uwjo1f8e86" data-item-class="Label Stroke" data-item-index="none" data-renderer-id="0" transform="translate(86, 387)"><g id="tx_onpremis_5uwjo1f8e86-fill" stroke="none" fill="#484848"><g><text style="font: 20px &quot;Roboto&quot;, sans-serif; white-space: pre;"><tspan x="14.33" y="34" dominant-baseline="ideographic">On-Premises to AWS</tspan></text></g></g></g><g id="g-root-cu_1d14e2s1fs2de-fill" data-item-order="0" data-item-id="cu_1d14e2s1fs2de" data-item-class="Curve Stroke ColorFillGray ColorStrokeGray" data-item-index="none" data-renderer-id="0" transform="translate(284, 375)"></g><g id="g-root-cu_1463ux01fs00d-fill" data-item-order="0" data-item-id="cu_1463ux01fs00d" data-item-class="Curve Stroke ColorFillGray ColorStrokeGray" data-item-index="none" data-renderer-id="0" transform="translate(284, 375)"></g><g id="g-root-tx_disaster_4njtxg1f8cgf-fill" data-item-order="0" data-item-id="tx_disaster_4njtxg1f8cgf" data-item-class="Label Stroke" data-item-index="none" data-renderer-id="0" transform="translate(614, 375)"><g id="tx_disaster_4njtxg1f8cgf-fill" stroke="none" fill="#484848"><g><text style="font: 20px &quot;Roboto&quot;, sans-serif; white-space: pre;"><tspan x="14.22" y="34" dominant-baseline="ideographic">Disaster Recovery</tspan></text></g></g></g><g id="g-root-tx_awstoaws_1qbyfd01f8bnz-fill" data-item-order="0" data-item-id="tx_awstoaws_1qbyfd01f8bnz" data-item-class="Label Stroke" data-item-index="none" data-renderer-id="0" transform="translate(158, 423)"><g id="tx_awstoaws_1qbyfd01f8bnz-fill" stroke="none" fill="#484848"><g><text style="font: 20px &quot;Roboto&quot;, sans-serif; white-space: pre;"><tspan x="14.2" y="34" dominant-baseline="ideographic">AWS to AWS</tspan></text></g></g></g><g id="g-root-1_6hdms1fjk74-fill" data-item-order="0" data-item-id="1_6hdms1fjk74" data-item-class="Icon Stroke" data-item-index="none" data-renderer-id="0" transform="translate(284, 15)"></g><g id="g-root-bill_vagric1fp79d-fill" data-item-order="0" data-item-id="bill_vagric1fp79d" data-item-class="Icon Stroke" data-item-index="none" data-renderer-id="0" transform="translate(392, 483)"></g><g id="g-root-tx_pricing_1lwrb5w1fp79c-fill" data-item-order="0" data-item-id="tx_pricing_1lwrb5w1fp79c" data-item-class="Label Stroke" data-item-index="none" data-renderer-id="0" transform="translate(428, 486)"><g id="tx_pricing_1lwrb5w1fp79c-fill" stroke="none" fill="#dd8433"><g><text style="font: 20px &quot;Roboto&quot;, sans-serif; white-space: pre;"><tspan x="15.1" y="34" dominant-baseline="ideographic">Pricing</tspan></text></g></g></g><g id="g-root-cu_vaguo41fs1l2-fill" data-item-order="0" data-item-id="cu_vaguo41fs1l2" data-item-class="Curve Stroke ColorFillGray ColorStrokeGray" data-item-index="none" data-renderer-id="0" transform="translate(404, 525)"></g><g id="g-root-cu_quncjo1fs2dd-fill" data-item-order="0" data-item-id="cu_quncjo1fs2dd" data-item-class="Curve Stroke ColorFillGray ColorStrokeGray" data-item-index="none" data-renderer-id="0" transform="translate(404, 525)"></g><g id="g-root-tx_datatran_145hdtw1f8bnn-fill" data-item-order="0" data-item-id="tx_datatran_145hdtw1f8bnn" data-item-class="Label Stroke" data-item-index="none" data-renderer-id="0" transform="translate(428, 537)"><g id="tx_datatran_145hdtw1f8bnn-fill" stroke="none" fill="#484848"><g><text style="font: 20px &quot;Roboto&quot;, sans-serif; white-space: pre;"><tspan x="15.54" y="34" dominant-baseline="ideographic">Data Transfer Volume</tspan></text></g></g></g><g id="g-root-tx_keyfeatu_91hwsk1fjlsf-fill" data-item-order="0" data-item-id="tx_keyfeatu_91hwsk1fjlsf" data-item-class="Label Stroke" data-item-index="none" data-renderer-id="0" transform="translate(158, 18)"><g id="tx_keyfeatu_91hwsk1fjlsf-fill" stroke="none" fill="#4682e3"><g><text style="font: 20px &quot;Roboto&quot;, sans-serif; white-space: pre;"><tspan x="12.72" y="34" dominant-baseline="ideographic">Key Features</tspan></text></g></g></g><g id="g-root-cu_mcyf5w1fs2kp-fill" data-item-order="0" data-item-id="cu_mcyf5w1fs2kp" data-item-class="Curve Stroke ColorFillGray ColorStrokeGray" data-item-index="none" data-renderer-id="0" transform="translate(326, 250)"></g><g id="g-root-ro_v4vpz815efib-stroke" data-item-order="-21600" data-item-id="ro_v4vpz815efib" data-item-class="Shape Stroke Fill" data-item-index="none" data-renderer-id="0" transform="translate(374, 150)"><g id="ro_v4vpz815efib-stroke" fill="none" stroke-linecap="round" stroke-linejoin="round" stroke-miterlimit="4" stroke="#484848" stroke-width="2"><g><path d="M 34 10L 130 10C 130 10 154 10 154 34L 154 136C 154 136 154 160 130 160L 34 160C 34 160 10 160 10 136L 10 34C 10 34 10 10 34 10"></path></g></g></g><g id="g-root-ro_1448fno1fs07h-stroke" data-item-order="-13608" data-item-id="ro_1448fno1fs07h" data-item-class="Shape Stroke Fill" data-item-index="none" data-renderer-id="0" transform="translate(74, 321)"><g id="ro_1448fno1fs07h-stroke" fill="none" stroke-linecap="round" stroke-linejoin="round" stroke-miterlimit="4" stroke="#17b0e3" stroke-width="2"><g><path d="M 22 10L 250 10C 250 10 262 10 262 22L 262 52C 262 52 262 64 250 64L 22 64C 22 64 10 64 10 52L 10 22C 10 22 10 10 22 10"></path></g></g></g><g id="g-root-ro_mcyc041fdz4a-stroke" data-item-order="-13608" data-item-id="ro_mcyc041fdz4a" data-item-class="Shape Stroke Fill" data-item-index="none" data-renderer-id="0" transform="translate(566, 51)"><g id="ro_mcyc041fdz4a-stroke" fill="none" stroke-linecap="round" stroke-linejoin="round" stroke-miterlimit="4" stroke="#3bc482" stroke-width="2"><g><path d="M 22 10L 250 10C 250 10 262 10 262 22L 262 52C 262 52 262 64 250 64L 22 64C 22 64 10 64 10 52L 10 22C 10 22 10 10 22 10"></path></g></g></g><g id="g-root-ro_1qbyfd01fjksp-stroke" data-item-order="-9720" data-item-id="ro_1qbyfd01fjksp" data-item-class="Shape Stroke Fill" data-item-index="none" data-renderer-id="0" transform="translate(146, 3)"><g id="ro_1qbyfd01fjksp-stroke" fill="none" stroke-linecap="round" stroke-linejoin="round" stroke-miterlimit="4" stroke="#4682e3" stroke-width="2"><g><path d="M 22 10L 178 10C 178 10 190 10 190 22L 190 52C 190 52 190 64 178 64L 22 64C 22 64 10 64 10 52L 10 22C 10 22 10 10 22 10"></path></g></g></g><g id="g-root-ro_18jfgp01f8buv-stroke" data-item-order="-9072" data-item-id="ro_18jfgp01f8buv" data-item-class="Shape Stroke Fill" data-item-index="none" data-renderer-id="0" transform="translate(566, 237)"><g id="ro_18jfgp01f8buv-stroke" fill="none" stroke-linecap="round" stroke-linejoin="round" stroke-miterlimit="4" stroke="#b65edf" stroke-width="2"><g><path d="M 22 10L 166 10C 166 10 178 10 178 22L 178 52C 178 52 178 64 166 64L 22 64C 22 64 10 64 10 52L 10 22C 10 22 10 10 22 10"></path></g></g></g><g id="g-root-ro_metr9g1fp822-stroke" data-item-order="-7128" data-item-id="ro_metr9g1fp822" data-item-class="Shape Stroke Fill" data-item-index="none" data-renderer-id="0" transform="translate(380, 471)"><g id="ro_metr9g1fp822-stroke" fill="none" stroke-linecap="round" stroke-linejoin="round" stroke-miterlimit="4" stroke="#dd8433" stroke-width="2"><g><path d="M 22 10L 130 10C 130 10 142 10 142 22L 142 52C 142 52 142 64 130 64L 22 64C 22 64 10 64 10 52L 10 22C 10 22 10 10 22 10"></path></g></g></g><g id="g-root-cu_1useekk1fs002-stroke" data-item-order="0" data-item-id="cu_1useekk1fs002" data-item-class="Curve Stroke ColorFillGray ColorStrokeGray" data-item-index="none" data-renderer-id="0" transform="translate(284, 57)"><g id="cu_1useekk1fs002-stroke" fill="none" stroke-linecap="round" stroke-linejoin="round" stroke-miterlimit="4" stroke="#888888" stroke-width="2" stroke-dasharray="5.0, 7.0"><g><path d="M 28 10L 28 58L 28 106L 19 106L 10 106"></path></g></g></g><g id="g-root-cu_1useekk1fs004-stroke" data-item-order="0" data-item-id="cu_1useekk1fs004" data-item-class="Curve Stroke ColorFillGray ColorStrokeGray" data-item-index="none" data-renderer-id="0" transform="translate(284, 57)"><g id="cu_1useekk1fs004-stroke" fill="none" stroke-linecap="round" stroke-linejoin="round" stroke-miterlimit="4" stroke="#888888" stroke-width="2" stroke-dasharray="5.0, 7.0"><g><path d="M 28 10L 28 76L 28 142L 19 142L 10 142"></path></g></g></g><g id="g-root-cu_1lwrebo1fs0su-stroke" data-item-order="0" data-item-id="cu_1lwrebo1fs0su" data-item-class="Curve Stroke ColorFillGray ColorStrokeGray" data-item-index="none" data-renderer-id="0" transform="translate(284, 57)"><g id="cu_1lwrebo1fs0su-stroke" fill="none" stroke-linecap="round" stroke-linejoin="round" stroke-miterlimit="4" stroke="#888888" stroke-width="2" stroke-dasharray="5.0, 7.0"><g><path d="M 28 10L 28 100L 28 190L 19 190L 10 190"></path></g></g></g><g id="g-root-cu_1qckwg41fs0sg-stroke" data-item-order="0" data-item-id="cu_1qckwg41fs0sg" data-item-class="Curve Stroke ColorFillGray ColorStrokeGray" data-item-index="none" data-renderer-id="0" transform="translate(284, 57)"><g id="cu_1qckwg41fs0sg-stroke" fill="none" stroke-linecap="round" stroke-linejoin="round" stroke-miterlimit="4" stroke="#888888" stroke-width="2" stroke-dasharray="5.0, 7.0"><g><path d="M 28 10L 28 38.5L 28 226C 28.000015 232.627432 22.627432 238.000015 16.000014 238.000016L 15.9 238L 10 238"></path></g></g></g><g id="g-root-cu_6hdms1fs2ko-stroke" data-item-order="0" data-item-id="cu_6hdms1fs2ko" data-item-class="Curve Stroke ColorFillGray ColorStrokeGray" data-item-index="none" data-renderer-id="0" transform="translate(284, 57)"><g id="cu_6hdms1fs2ko-stroke" fill="none" stroke-linecap="round" stroke-linejoin="round" stroke-miterlimit="4" stroke="#888888" stroke-width="2" stroke-dasharray="5.0, 7.0"><g><path d="M 28 10L 28 40L 28 70L 19 70L 10 70"></path></g></g></g><g id="g-root-tx_highspee_v7yybo1f8dfs-stroke" data-item-order="0" data-item-id="tx_highspee_v7yybo1f8dfs" data-item-class="Label Stroke" data-item-index="none" data-renderer-id="0" transform="translate(86, 69)"></g><g id="g-root-colu_v8lc901fdybl-stroke" data-item-order="0" data-item-id="colu_v8lc901fdybl" data-item-class="Icon Stroke" data-item-index="none" data-renderer-id="0" transform="translate(578, 63)"><g id="colu_v8lc901fdybl-stroke" fill="none" stroke-linecap="round" stroke-linejoin="round" stroke-miterlimit="4" stroke="#3bc482" stroke-width="2"><g><path d="M 11.875 10.62125L 36.875 10.62125C 36.875 10.62125 38.125 10.62125 38.125 11.87125L 38.125 36.87125C 38.125 36.87125 38.125 38.12125 36.875 38.12125L 11.875 38.12125C 11.875 38.12125 10.625 38.12125 10.625 36.87125L 10.625 11.87125C 10.625 11.87125 10.625 10.62125 11.875 10.62125M 24.375 10.62125L 24.375 38.12125"></path></g></g></g><g id="g-root-tx_operatio_1qa2wxw1fe0p4-stroke" data-item-order="0" data-item-id="tx_operatio_1qa2wxw1fe0p4" data-item-class="Label Stroke" data-item-index="none" data-renderer-id="0" transform="translate(614, 66)"></g><g id="g-root-cu_hxre4k1fs078-stroke" data-item-order="0" data-item-id="cu_hxre4k1fs078" data-item-class="Curve Stroke ColorFillGray ColorStrokeGray" data-item-index="none" data-renderer-id="0" transform="translate(518, 78)"><g id="cu_hxre4k1fs078-stroke" fill="none" stroke-linecap="round" stroke-linejoin="round" stroke-miterlimit="4" stroke="#888888" stroke-width="2" stroke-dasharray="5.0, 7.0"><g><path d="M 10 132L 13 132L 13.1 132C 24.642746 132.000005 33.999996 122.642756 33.999996 111.100004L 34 111L 34 30.9C 33.999999 19.357249 43.357248 10.000001 54.899999 10.000002L 55 10L 58 10"></path></g></g></g><g id="g-root-tx_automate_qs5g781f8e81-stroke" data-item-order="0" data-item-id="tx_automate_qs5g781f8e81" data-item-class="Label Stroke" data-item-index="none" data-renderer-id="0" transform="translate(26, 105)"></g><g id="g-root-cu_1463ux01fs00f-stroke" data-item-order="0" data-item-id="cu_1463ux01fs00f" data-item-class="Curve Stroke ColorFillGray ColorStrokeGray" data-item-index="none" data-renderer-id="0" transform="translate(590, 105)"><g id="cu_1463ux01fs00f-stroke" fill="none" stroke-linecap="round" stroke-linejoin="round" stroke-miterlimit="4" stroke="#888888" stroke-width="2" stroke-dasharray="5.0, 7.0"><g><path d="M 10 10L 10 22L 10 34L 19 34L 28 34"></path></g></g></g><g id="g-root-cu_zqacsk1fs0sq-stroke" data-item-order="0" data-item-id="cu_zqacsk1fs0sq" data-item-class="Curve Stroke ColorFillGray ColorStrokeGray" data-item-index="none" data-renderer-id="0" transform="translate(590, 105)"><g id="cu_zqacsk1fs0sq-stroke" fill="none" stroke-linecap="round" stroke-linejoin="round" stroke-miterlimit="4" stroke="#888888" stroke-width="2" stroke-dasharray="5.0, 7.0"><g><path d="M 10 10L 10 40L 10 70L 19 70L 28 70"></path></g></g></g><g id="g-root-cu_vaguo41fs1l0-stroke" data-item-order="0" data-item-id="cu_vaguo41fs1l0" data-item-class="Curve Stroke ColorFillGray ColorStrokeGray" data-item-index="none" data-renderer-id="0" transform="translate(590, 105)"><g id="cu_vaguo41fs1l0-stroke" fill="none" stroke-linecap="round" stroke-linejoin="round" stroke-miterlimit="4" stroke="#888888" stroke-width="2" stroke-dasharray="5.0, 7.0"><g><path d="M 10 10L 10 22L 10 94C 10.000004 100.627423 15.372587 106.000006 22.000005 106.000005L 22.1 106L 28 106"></path></g></g></g><g id="g-root-tx_schedule_1lw4x8k1f8cg8-stroke" data-item-order="0" data-item-id="tx_schedule_1lw4x8k1f8cg8" data-item-class="Label Stroke" data-item-index="none" data-renderer-id="0" transform="translate(614, 117)"></g><g id="g-root-tx_datatran_hx4x1g1f8buy-stroke" data-item-order="0" data-item-id="tx_datatran_hx4x1g1f8buy" data-item-class="Label Stroke" data-item-index="none" data-renderer-id="0" transform="translate(26, 141)"></g><g id="g-root-cu_dhxw041fs0zp-stroke" data-item-order="0" data-item-id="cu_dhxw041fs0zp" data-item-class="Curve Stroke ColorFillGray ColorStrokeGray" data-item-index="none" data-renderer-id="0" transform="translate(284, 57)"><g id="cu_dhxw041fs0zp-stroke" fill="none" stroke-linecap="round" stroke-linejoin="round" stroke-miterlimit="4" stroke="#888888" stroke-width="2" stroke-dasharray="5.0, 7.0"><g><path d="M 28 10L 28 22L 28 34L 19 34L 10 34"></path></g></g></g><g id="g-root-tx_monitori_1hgbf441f8d8h-stroke" data-item-order="0" data-item-id="tx_monitori_1hgbf441f8d8h" data-item-class="Label Stroke" data-item-index="none" data-renderer-id="0" transform="translate(614, 153)"></g><g id="g-root-tx_integrat_dhbex01f8cn7-stroke" data-item-order="0" data-item-id="tx_integrat_dhbex01f8cn7" data-item-class="Label Stroke" data-item-index="none" data-renderer-id="0" transform="translate(2, 177)"></g><g id="g-root-hori_1cw5qh015ed56-stroke" data-item-order="0" data-item-id="hori_1cw5qh015ed56" data-item-class="Icon Stroke" data-item-index="none" data-renderer-id="0" transform="translate(422, 174)"><g id="hori_1cw5qh015ed56-stroke" fill="none" stroke-linecap="round" stroke-linejoin="round" stroke-miterlimit="4" stroke="#484848" stroke-width="2"><g><path d="M 11 29L 39 29M 29 39L 57 39M 19 37L 11 29L 19 21M 49 47L 57 39L 49 31"></path></g></g></g><g id="g-root-tx_bandwidt_1hgbf441f8d8i-stroke" data-item-order="0" data-item-id="tx_bandwidt_1hgbf441f8d8i" data-item-class="Label Stroke" data-item-index="none" data-renderer-id="0" transform="translate(614, 189)"></g><g id="g-root-tx_dataencr_4loeo41f8dfw-stroke" data-item-order="0" data-item-id="tx_dataencr_4loeo41f8dfw" data-item-class="Label Stroke" data-item-index="none" data-renderer-id="0" transform="translate(2, 213)"></g><g id="g-root-tx_awsdatas_4hc85g15edc9-stroke" data-item-order="0" data-item-id="tx_awsdatas_4hc85g15edc9" data-item-class="Label Stroke" data-item-index="none" data-renderer-id="0" transform="translate(398, 228)"></g><g id="g-root-tx_nominimu_v9udl01f8cgc-stroke" data-item-order="0" data-item-id="tx_nominimu_v9udl01f8cgc" data-item-class="Label Stroke" data-item-index="none" data-renderer-id="0" transform="translate(428, 573)"></g><g id="g-root-cu_dhxw041fs0zm-stroke" data-item-order="0" data-item-id="cu_dhxw041fs0zm" data-item-class="Curve Stroke ColorFillGray ColorStrokeGray" data-item-index="none" data-renderer-id="0" transform="translate(518, 250)"><g id="cu_dhxw041fs0zm-stroke" fill="none" stroke-linecap="round" stroke-linejoin="round" stroke-miterlimit="4" stroke="#888888" stroke-width="2" stroke-dasharray="5.0, 7.0"><g><path d="M 10 10L 13 10L 13.1 10C 16.47715 10.00393 20.199416 10.613028 24.1 11.8C 26.434787 12.503612 29.936878 14.343094 34 16.999999C 38.063122 19.656905 41.565214 21.496387 43.900001 22.199999C 47.800584 23.386973 51.52285 23.996071 54.900001 24.000001L 55 24L 58 24"></path></g></g></g><g id="g-root-appl_1cymhqc1f8e8e-stroke" data-item-order="0" data-item-id="appl_1cymhqc1f8e8e" data-item-class="Icon Stroke" data-item-index="none" data-renderer-id="0" transform="translate(578, 249)"><g id="appl_1cymhqc1f8e8e-stroke" fill="none" stroke-linecap="round" stroke-linejoin="round" stroke-miterlimit="4" stroke="#b65edf" stroke-width="2"><g><path d="M 38.92857 28.214285L 38.92857 32.5C 38.92857 33.091732 38.448875 33.571426 37.857143 33.571426L 12.142857 33.571426C 11.551124 33.571426 11.071428 33.091732 11.071428 32.5L 11.071428 28.214285M 11.071428 19.642857L 11.071428 15.357142C 11.071428 14.765409 11.551124 14.285714 12.142857 14.285714L 37.857143 14.285714C 38.448875 14.285714 38.92857 14.765409 38.92857 15.357142L 38.92857 19.642857M 22.857143 33.571426L 20.714285 38.92857M 27.142857 33.571426L 29.285713 38.92857M 18.571428 38.92857L 31.42857 38.92857M 21.785713 19.642857L 28.214285 19.642857L 28.214285 28.214285L 21.785713 28.214285ZM 16.428572 20.714285L 13.214286 23.928572L 16.428572 27.142857M 33.571426 20.714285L 36.785713 23.928572L 33.571426 27.142857"></path></g></g></g><g id="g-root-tx_usecases_1qa303o1f8cnh-stroke" data-item-order="0" data-item-id="tx_usecases_1qa303o1f8cnh" data-item-class="Label Stroke" data-item-index="none" data-renderer-id="0" transform="translate(614, 252)"></g><g id="g-root-tx_agentdep_5uwjo1f8e85-stroke" data-item-order="0" data-item-id="tx_agentdep_5uwjo1f8e85" data-item-class="Label Stroke" data-item-index="none" data-renderer-id="0" transform="translate(110, 273)"></g><g id="g-root-cu_hxre4k1fs07b-stroke" data-item-order="0" data-item-id="cu_hxre4k1fs07b" data-item-class="Curve Stroke ColorFillGray ColorStrokeGray" data-item-index="none" data-renderer-id="0" transform="translate(446, 300)"><g id="cu_hxre4k1fs07b-stroke" fill="none" stroke-linecap="round" stroke-linejoin="round" stroke-miterlimit="4" stroke="#888888" stroke-width="2" stroke-dasharray="5.0, 7.0"><g><path d="M 10 10L 10 95.5L 10 181"></path></g></g></g><g id="g-root-cu_hzmtdw1fs00b-stroke" data-item-order="0" data-item-id="cu_hzmtdw1fs00b" data-item-class="Curve Stroke ColorFillGray ColorStrokeGray" data-item-index="none" data-renderer-id="0" transform="translate(590, 291)"><g id="cu_hzmtdw1fs00b-stroke" fill="none" stroke-linecap="round" stroke-linejoin="round" stroke-miterlimit="4" stroke="#888888" stroke-width="2" stroke-dasharray="5.0, 7.0"><g><path d="M 10 10L 10 22L 10 34L 19 34L 28 34"></path></g></g></g><g id="g-root-cu_djtb9g1fs0sm-stroke" data-item-order="0" data-item-id="cu_djtb9g1fs0sm" data-item-class="Curve Stroke ColorFillGray ColorStrokeGray" data-item-index="none" data-renderer-id="0" transform="translate(590, 291)"><g id="cu_djtb9g1fs0sm-stroke" fill="none" stroke-linecap="round" stroke-linejoin="round" stroke-miterlimit="4" stroke="#888888" stroke-width="2" stroke-dasharray="5.0, 7.0"><g><path d="M 10 10L 10 40L 10 70L 19 70L 28 70"></path></g></g></g><g id="g-root-cu_djtb9g1fs0so-stroke" data-item-order="0" data-item-id="cu_djtb9g1fs0so" data-item-class="Curve Stroke ColorFillGray ColorStrokeGray" data-item-index="none" data-renderer-id="0" transform="translate(590, 291)"><g id="cu_djtb9g1fs0so-stroke" fill="none" stroke-linecap="round" stroke-linejoin="round" stroke-miterlimit="4" stroke="#888888" stroke-width="2" stroke-dasharray="5.0, 7.0"><g><path d="M 10 10L 10 22L 10 94C 10.000004 100.627423 15.372587 106.000006 22.000005 106.000005L 22.1 106L 28 106"></path></g></g></g><g id="g-root-tx_datamigr_hydv7o1f8e19-stroke" data-item-order="0" data-item-id="tx_datamigr_hydv7o1f8e19" data-item-class="Label Stroke" data-item-index="none" data-renderer-id="0" transform="translate(614, 303)"></g><g id="g-root-cu_qsrxac1fs1se-stroke" data-item-order="0" data-item-id="cu_qsrxac1fs1se" data-item-class="Curve Stroke ColorFillGray ColorStrokeGray" data-item-index="none" data-renderer-id="0" transform="translate(326, 30)"><g id="cu_qsrxac1fs1se-stroke" fill="none" stroke-linecap="round" stroke-linejoin="round" stroke-miterlimit="4" stroke="#888888" stroke-width="2" stroke-dasharray="5.0, 7.0"><g><path d="M 58 180L 55 180L 54.9 180C 43.357244 180.000001 33.999996 170.642752 33.999996 159.1L 34 159L 34 30.9C 33.999998 19.357248 24.64275 10 13.1 10L 13 10L 10 10"></path></g></g></g><g id="g-root-tx_datatran_1qaph6s1fs0zn-stroke" data-item-order="0" data-item-id="tx_datatran_1qaph6s1fs0zn" data-item-class="Label Stroke" data-item-index="none" data-renderer-id="0" transform="translate(86, 336)"></g><g id="g-root-back_1cz8ytg1fs2kk-stroke" data-item-order="0" data-item-id="back_1cz8ytg1fs2kk" data-item-class="Icon Stroke" data-item-index="none" data-renderer-id="0" transform="translate(284, 333)"><g id="back_1cz8ytg1fs2kk-stroke" fill="none" stroke-linecap="round" stroke-linejoin="round" stroke-miterlimit="4" stroke="#17b0e3" stroke-width="2"><g><path d="M 30 11.25L 33.75 15L 30 18.75M 33.75 15L 10.625 15M 30 31.25L 33.75 35L 30 38.75M 33.75 35L 10.625 35M 20 21.25L 16.25 25L 20 28.75M 16.25 25L 39.375 25"></path></g></g></g><g id="g-root-tx_analytic_dj6u6c1f8bnq-stroke" data-item-order="0" data-item-id="tx_analytic_dj6u6c1f8bnq" data-item-class="Label Stroke" data-item-index="none" data-renderer-id="0" transform="translate(614, 339)"></g><g id="g-root-tx_onpremis_5uwjo1f8e86-stroke" data-item-order="0" data-item-id="tx_onpremis_5uwjo1f8e86" data-item-class="Label Stroke" data-item-index="none" data-renderer-id="0" transform="translate(86, 387)"></g><g id="g-root-cu_1d14e2s1fs2de-stroke" data-item-order="0" data-item-id="cu_1d14e2s1fs2de" data-item-class="Curve Stroke ColorFillGray ColorStrokeGray" data-item-index="none" data-renderer-id="0" transform="translate(284, 375)"><g id="cu_1d14e2s1fs2de-stroke" fill="none" stroke-linecap="round" stroke-linejoin="round" stroke-miterlimit="4" stroke="#888888" stroke-width="2" stroke-dasharray="5.0, 7.0"><g><path d="M 28 10L 28 22L 28 34L 19 34L 10 34"></path></g></g></g><g id="g-root-cu_1463ux01fs00d-stroke" data-item-order="0" data-item-id="cu_1463ux01fs00d" data-item-class="Curve Stroke ColorFillGray ColorStrokeGray" data-item-index="none" data-renderer-id="0" transform="translate(284, 375)"><g id="cu_1463ux01fs00d-stroke" fill="none" stroke-linecap="round" stroke-linejoin="round" stroke-miterlimit="4" stroke="#888888" stroke-width="2" stroke-dasharray="5.0, 7.0"><g><path d="M 28 10L 28 17.5L 28 58C 27.999999 64.627415 22.627416 69.999998 16 69.999998L 15.9 70L 10 70"></path></g></g></g><g id="g-root-tx_disaster_4njtxg1f8cgf-stroke" data-item-order="0" data-item-id="tx_disaster_4njtxg1f8cgf" data-item-class="Label Stroke" data-item-index="none" data-renderer-id="0" transform="translate(614, 375)"></g><g id="g-root-tx_awstoaws_1qbyfd01f8bnz-stroke" data-item-order="0" data-item-id="tx_awstoaws_1qbyfd01f8bnz" data-item-class="Label Stroke" data-item-index="none" data-renderer-id="0" transform="translate(158, 423)"></g><g id="g-root-1_6hdms1fjk74-stroke" data-item-order="0" data-item-id="1_6hdms1fjk74" data-item-class="Icon Stroke" data-item-index="none" data-renderer-id="0" transform="translate(284, 15)"><g id="1_6hdms1fjk74-stroke" fill="none" stroke-linecap="round" stroke-linejoin="round" stroke-miterlimit="4" stroke="#4682e3" stroke-width="2"><g><path d="M 10.625 16.25C 10.625 19.356602 13.143398 21.875 16.25 21.875C 19.356602 21.875 21.875 19.356602 21.875 16.25C 21.875 13.143398 19.356602 10.625 16.25 10.625C 13.143398 10.625 10.625 13.143398 10.625 16.25M 28.125 16.25C 28.125 19.356602 30.643398 21.875 33.75 21.875C 36.856602 21.875 39.375 19.356602 39.375 16.25C 39.375 13.143398 36.856602 10.625 33.75 10.625C 30.643398 10.625 28.125 13.143398 28.125 16.25M 10.625 33.75C 10.625 36.856602 13.143398 39.375 16.25 39.375C 19.356602 39.375 21.875 36.856602 21.875 33.75C 21.875 30.643398 19.356602 28.125 16.25 28.125C 13.143398 28.125 10.625 30.643398 10.625 33.75M 28.125 33.75C 28.125 36.856602 30.643398 39.375 33.75 39.375C 36.856602 39.375 39.375 36.856602 39.375 33.75C 39.375 30.643398 36.856602 28.125 33.75 28.125C 30.643398 28.125 28.125 30.643398 28.125 33.75"></path></g></g></g><g id="g-root-bill_vagric1fp79d-stroke" data-item-order="0" data-item-id="bill_vagric1fp79d" data-item-class="Icon Stroke" data-item-index="none" data-renderer-id="0" transform="translate(392, 483)"><g id="bill_vagric1fp79d-stroke" fill="none" stroke-linecap="round" stroke-linejoin="round" stroke-miterlimit="4" stroke="#dd8433" stroke-width="2"><g><path d="M 30.0875 31.213751L 35.625 29.375C 37.013462 28.963295 38.511253 29.462559 39.375 30.625C 24.088749 38.266251 29.035 38.221249 15.625 33.75L 10.625 36.875M 21.875 31.875L 28.75 31.875C 29.249928 31.964788 29.755272 31.74807 30.03483 31.323997C 30.31439 30.899927 30.31439 30.350075 30.03483 29.926003C 29.755272 29.501932 29.249928 29.285213 28.750002 29.375002L 25 29.375C 23.518351 27.846319 21.50255 26.950409 19.375 26.875002L 15.625 26.875L 10.625 29.375M 18.130001 13.125L 36.880001 13.125L 36.880001 23.125L 18.130001 23.125ZM 31.307499 13.125L 36.880001 17.5M 32.09375 23.125L 36.880001 18.75M 18.130001 18.75L 22.914999 23.125M 18.130001 17.5L 23.67625 13.125M 25.629999 18.125C 25.630001 19.160534 26.469467 20 27.505001 20C 28.540535 20 29.380001 19.160534 29.380001 18.125C 29.380001 17.089466 28.540535 16.25 27.505001 16.25C 26.469467 16.25 25.630001 17.089466 25.630001 18.125Z"></path></g></g></g><g id="g-root-tx_pricing_1lwrb5w1fp79c-stroke" data-item-order="0" data-item-id="tx_pricing_1lwrb5w1fp79c" data-item-class="Label Stroke" data-item-index="none" data-renderer-id="0" transform="translate(428, 486)"></g><g id="g-root-cu_vaguo41fs1l2-stroke" data-item-order="0" data-item-id="cu_vaguo41fs1l2" data-item-class="Curve Stroke ColorFillGray ColorStrokeGray" data-item-index="none" data-renderer-id="0" transform="translate(404, 525)"><g id="cu_vaguo41fs1l2-stroke" fill="none" stroke-linecap="round" stroke-linejoin="round" stroke-miterlimit="4" stroke="#888888" stroke-width="2" stroke-dasharray="5.0, 7.0"><g><path d="M 10 10L 10 22L 10 34L 19 34L 28 34"></path></g></g></g><g id="g-root-cu_quncjo1fs2dd-stroke" data-item-order="0" data-item-id="cu_quncjo1fs2dd" data-item-class="Curve Stroke ColorFillGray ColorStrokeGray" data-item-index="none" data-renderer-id="0" transform="translate(404, 525)"><g id="cu_quncjo1fs2dd-stroke" fill="none" stroke-linecap="round" stroke-linejoin="round" stroke-miterlimit="4" stroke="#888888" stroke-width="2" stroke-dasharray="5.0, 7.0"><g><path d="M 10 10L 10 17.5L 10 58C 10.000002 64.627417 15.372585 70 22.000002 69.999999L 22.1 70L 28 70"></path></g></g></g><g id="g-root-tx_datatran_145hdtw1f8bnn-stroke" data-item-order="0" data-item-id="tx_datatran_145hdtw1f8bnn" data-item-class="Label Stroke" data-item-index="none" data-renderer-id="0" transform="translate(428, 537)"></g><g id="g-root-tx_keyfeatu_91hwsk1fjlsf-stroke" data-item-order="0" data-item-id="tx_keyfeatu_91hwsk1fjlsf" data-item-class="Label Stroke" data-item-index="none" data-renderer-id="0" transform="translate(158, 18)"></g><g id="g-root-cu_mcyf5w1fs2kp-stroke" data-item-order="0" data-item-id="cu_mcyf5w1fs2kp" data-item-class="Curve Stroke ColorFillGray ColorStrokeGray" data-item-index="none" data-renderer-id="0" transform="translate(326, 250)"><g id="cu_mcyf5w1fs2kp-stroke" fill="none" stroke-linecap="round" stroke-linejoin="round" stroke-miterlimit="4" stroke="#888888" stroke-width="2" stroke-dasharray="5.0, 7.0"><g><path d="M 58 10L 55 10L 54.9 10C 43.357248 10.000001 33.999999 19.357249 33.999999 30.9L 34 31L 34 87.1C 33.999998 98.642754 24.642749 108.000003 13.099997 108.000002L 13 108L 10 108"></path></g></g></g></g></g></svg>